<?xml version="1.0" encoding="UTF-8"?>
<!DOCTYPE svg PUBLIC "-//W3C//DTD SVG 1.1//EN" "http://www.w3.org/Graphics/SVG/1.1/DTD/svg11.dtd">
<!-- Creator: CorelDRAW X7 -->
<svg xmlns="http://www.w3.org/2000/svg" xml:space="preserve" width="6.6717mm" height="6.9611mm" version="1.1" style="shape-rendering:geometricPrecision; text-rendering:geometricPrecision; image-rendering:optimizeQuality; fill-rule:evenodd; clip-rule:evenodd"
viewBox="0 0 98 102"
 xmlns:xlink="http://www.w3.org/1999/xlink">
 <defs>
  <style type="text/css">
   <![CDATA[
    .fil0 {fill:#3C3C3C}
   ]]>
  </style>
 </defs>
 <g id="Layer_x0020_1">
  <metadata id="CorelCorpID_0Corel-Layer"/>
  <path class="fil0" d="M9 40l19 0 0 14 -19 0 0 -14zm16 -9l4 0c3,-1 5,-2 6,-4l0 0c2,-2 3,-4 3,-7l0 -9 21 0 0 9c0,3 1,5 3,7 2,2 4,3 6,4l4 0c3,-1 5,-2 6,-4l0 0c2,-2 3,-4 3,-7l0 -9 17 0 0 20 0 3 0 68 -98 0 0 -68 0 -3 0 -20 16 0 0 9c0,3 2,5 4,7 1,2 3,3 5,4zm2 -31l0 0c5,0 8,4 8,8l0 12c0,4 -3,8 -8,8l0 0c-4,0 -8,-4 -8,-8l0 -12c0,-4 4,-8 8,-8zm43 0l0 0c5,0 8,4 8,8l0 12c0,4 -3,8 -8,8l0 0c-4,0 -8,-4 -8,-8l0 -12c0,-4 4,-8 8,-8zm24 38l-91 0 0 60 91 0 0 -60zm-24 44l19 0 0 14 -19 0 0 -14zm-31 0l20 0 0 14 -20 0 0 -14zm-30 0l19 0 0 14 -19 0 0 -14zm30 -21l20 0 0 14 -20 0 0 -14zm-30 0l19 0 0 14 -19 0 0 -14zm61 0l19 0 0 14 -19 0 0 -14zm0 -21l19 0 0 14 -19 0 0 -14zm-31 0l20 0 0 14 -20 0 0 -14z"/>
 </g>
</svg>
