<?xml version="1.0" encoding="UTF-8"?>
<!DOCTYPE svg PUBLIC "-//W3C//DTD SVG 1.1//EN" "http://www.w3.org/Graphics/SVG/1.1/DTD/svg11.dtd">
<!-- Creator: CorelDRAW X7 -->
<svg xmlns="http://www.w3.org/2000/svg" xml:space="preserve" width="9.0813mm" height="5.4651mm" version="1.1" style="shape-rendering:geometricPrecision; text-rendering:geometricPrecision; image-rendering:optimizeQuality; fill-rule:evenodd; clip-rule:evenodd"
viewBox="0 0 342 206"
 xmlns:xlink="http://www.w3.org/1999/xlink">
 <defs>
  <style type="text/css">
   <![CDATA[
    .fil0 {fill:#3C3C3C}
   ]]>
  </style>
 </defs>
 <g id="Layer_x0020_1">
  <metadata id="CorelCorpID_0Corel-Layer"/>
  <path class="fil0" d="M287 65c3,5 10,14 11,18 1,2 4,20 -3,25 -5,3 -19,2 -27,2 -10,0 -20,0 -30,0l0 0c-16,0 -13,1 -13,-26 0,-7 0,-14 0,-20 0,-22 -6,-19 41,-19 8,1 10,2 13,7 2,4 6,9 8,13l0 0zm-228 77l0 0 15 0 1 0c9,1 17,6 21,11 8,5 12,19 11,32l-1 2 0 0 1 -2 96 -1 11 0c-2,-19 8,-32 21,-38 15,-8 35,-3 43,7 8,5 11,19 10,32l11 -1c8,0 23,1 30,-1 3,-1 6,-4 8,-7 4,-3 3,-6 5,-10l0 -14 0 -21 0 -7c-6,-8 2,-2 -12,-16 -3,-3 -5,-5 -8,-7 -4,-5 -24,-41 -27,-43 -2,-4 -5,-8 -7,-11 -2,-4 -4,-7 -6,-11 -5,-7 -9,-12 -17,-17 -14,-8 -43,-6 -62,-6l0 -13 -203 0 0 131 0 11 0 7 0 14 0 18c2,3 4,3 9,3 4,0 8,0 12,0l11 1c-1,-17 6,-31 20,-39 1,-1 4,-2 6,-2 2,-1 6,-2 7,-2l-6 0zm-59 0l0 0 0 0zm50 55c0,0 1,2 1,2l0 0 0 0 0 0 0 0 0 0 0 0 0 0 1 0 0 0 0 1 0 0 0 0 0 0 1 0 0 0 0 0 0 0 0 0 4 3 0 0 0 0 0 0 0 0 0 0 0 0 1 0 0 0 0 0c2,1 4,2 7,3l0 0 0 0 1 0 0 0 0 0 0 0 0 0 1 0 0 0 0 0 0 0 0 0 0 0 0 0 1 0 0 0 0 0 0 0 0 0 0 0 0 0 1 0 0 0 0 0 0 0 0 0 0 0 0 0 0 0 1 0 0 0 0 0 1 0 0 0 1 0 0 0 0 0 1 0 0 0 1 0 2 -1 0 0c4,-1 7,-2 10,-5l0 0 0 0 1 0 1 -1 0 0c4,-4 7,-10 8,-16l0 -1 0 0 0 0 0 -1c0,-2 0,-4 0,-6l0 0 0 0 0 -1 0 0 0 0 0 0 0 -1c-1,-2 -1,-3 -2,-5l0 0 0 0 0 0 0 0 0 0 0 0 0 -1 -1 0 0 0 0 0c-1,-2 -2,-3 -2,-4l0 0 -1 -1 0 0 0 0 0 0 0 0 0 0 0 0 0 0 -1 -2 0 0 -1 0 0 0 0 0 0 0 -1 0 0 0 0 -1 0 0 0 0 0 0 0 0 0 0c-3,-3 -8,-6 -14,-6l0 0 0 0 0 0 0 0 -1 0 0 0 0 0 0 0 -1 0 0 -1 -1 0c-10,0 -19,6 -23,13l0 1 -1 0 0 1 0 0 0 0 0 0 -1 1 0 0c-1,3 -2,7 -2,10l0 0 0 1 0 1 0 1 0 0 0 0 0 0 0 1 0 0 0 0c0,3 1,5 2,8l0 0 0 0 0 1 0 0 1 0 0 0 0 0 0 1 0 0 0 0 0 0 0 1 1 0 0 0 0 0 0 0 0 0 0 1 0 0 0 0c1,2 2,2 3,3zm182 0c0,0 0,2 0,2 6,3 9,7 19,7 22,0 32,-22 25,-37 -2,-4 -4,-6 -5,-9l-1 0c-7,-9 -25,-12 -37,0 -10,9 -11,23 -4,34 1,2 2,2 3,3z"/>
 </g>
</svg>
