<?xml version="1.0" encoding="UTF-8"?>
<!DOCTYPE svg PUBLIC "-//W3C//DTD SVG 1.1//EN" "http://www.w3.org/Graphics/SVG/1.1/DTD/svg11.dtd">
<!-- Creator: CorelDRAW X7 -->
<svg xmlns="http://www.w3.org/2000/svg" xml:space="preserve" width="30.3634mm" height="34.9703mm" version="1.1" style="shape-rendering:geometricPrecision; text-rendering:geometricPrecision; image-rendering:optimizeQuality; fill-rule:evenodd; clip-rule:evenodd"
viewBox="0 0 579 667"
 xmlns:xlink="http://www.w3.org/1999/xlink">
 <defs>
  <style type="text/css">
   <![CDATA[
    .fil0 {fill:#3C3C3C;fill-opacity:0.050980}
   ]]>
  </style>
 </defs>
 <g id="Layer_x0020_1">
  <metadata id="CorelCorpID_0Corel-Layer"/>
  <path class="fil0" d="M290 0c-160,0 -290,130 -290,290 0,85 37,161 95,214l0 0 0 0c6,5 12,10 17,15l178 148 177 -148c6,-5 11,-10 17,-15l0 0 0 0c58,-53 95,-129 95,-214 0,-160 -130,-290 -289,-290zm-137 192c4,-4 10,-3 14,-3 44,0 88,0 132,0 5,0 10,2 12,7 0,5 0,10 0,16 0,38 0,76 0,114 0,9 0,17 0,25 0,6 -6,9 -11,9 -14,1 -28,0 -42,0 -2,-12 -10,-23 -21,-28 -11,-6 -23,-5 -34,0 -11,5 -18,16 -21,28 -8,0 -16,0 -24,0 -4,-2 -8,-5 -7,-10 0,-49 -1,-98 0,-147 0,-4 -1,-8 2,-11zm210 150c7,-2 16,-1 22,4 7,5 11,14 10,23 -2,13 -15,23 -28,21 -11,-1 -20,-11 -21,-22 -1,-11 6,-22 17,-26zm-151 0c15,-5 33,7 33,22 1,14 -11,27 -24,26 -12,1 -24,-9 -25,-21 -2,-12 6,-23 16,-27zm111 -101c0,-5 4,-9 9,-9 17,0 34,0 51,0 5,0 8,4 11,7 9,10 16,20 24,31 4,6 9,13 11,20 0,21 0,41 0,61 0,4 -3,7 -6,9 -5,0 -10,0 -15,0 -1,-9 -6,-17 -13,-23 -8,-7 -19,-10 -29,-9 -12,1 -23,9 -29,20 -2,4 -3,8 -5,13 -5,-1 -9,-6 -10,-11 0,-31 0,-63 0,-95 0,-4 0,-9 1,-14zm31 12l0 0c0,14 0,29 0,43 19,0 38,0 58,0 -2,-6 -6,-10 -9,-15 -7,-9 -13,-18 -20,-27 -10,-1 -19,-1 -29,-1z"/>
 </g>
</svg>
