<?xml version="1.0" encoding="UTF-8"?>
<!DOCTYPE svg PUBLIC "-//W3C//DTD SVG 1.1//EN" "http://www.w3.org/Graphics/SVG/1.1/DTD/svg11.dtd">
<!-- Creator: CorelDRAW X7 -->
<svg xmlns="http://www.w3.org/2000/svg" xml:space="preserve" width="7.9933mm" height="6.6559mm" version="1.1" style="shape-rendering:geometricPrecision; text-rendering:geometricPrecision; image-rendering:optimizeQuality; fill-rule:evenodd; clip-rule:evenodd"
viewBox="0 0 62 51"
 xmlns:xlink="http://www.w3.org/1999/xlink">
 <defs>
  <style type="text/css">
   <![CDATA[
    .fil0 {fill:#3C3C3C}
   ]]>
  </style>
 </defs>
 <g id="Layer_x0020_1">
  <metadata id="CorelCorpID_0Corel-Layer"/>
  <g id="_2077350979872">
   <ellipse class="fil0" cx="13" cy="47" rx="13" ry="4"/>
   <g>
    <rect class="fil0" x="11" width="4.6662" height="47.2873"/>
    <path class="fil0" d="M11 25l5 0 0 5 5 0 0 -5 -5 0 0 -5 5 0 0 -5 -5 0 0 -5 5 0 0 -5 -5 0 0 -5 -5 0 0 5 5 0 0 5 -5 0 0 5 5 0 0 5 -5 0 0 5zm41 -20l5 0 0 -5 -5 0 0 5 -5 0 0 -5 -6 0 0 5 6 0 0 5 -6 0 0 5 6 0 0 5 -6 0 0 5 6 0 0 5 5 0 0 -5 5 0 0 -5 -5 0 0 -5 5 0 0 -5 -5 0 0 -5zm-21 0l5 0 0 5 -5 0 0 -5zm5 0l0 -5 -5 0 0 5 -5 0 0 -5 -5 0 0 5 5 0 0 5 -5 0 0 5 5 0 0 5 -5 0 0 5 5 0 0 5 5 0 0 -5 5 0 0 5 5 0 0 -5 -5 0 0 -5 5 0 0 -5 -5 0 0 -5 5 0 0 -5 -5 0zm21 5l5 0 0 -5 -5 0 0 5zm-10 0l5 0 0 5 -5 0 0 -5zm-21 0l5 0 0 5 -5 0 0 -5zm5 5l5 0 0 5 -5 0 0 -5zm26 5l5 0 0 -5 -5 0 0 5zm-10 0l5 0 0 5 -5 0 0 -5zm-21 0l5 0 0 5 -5 0 0 -5zm31 10l5 0 0 -5 -5 0 0 5z"/>
   </g>
  </g>
 </g>
</svg>
