<?xml version="1.0" encoding="UTF-8"?>
<!DOCTYPE svg PUBLIC "-//W3C//DTD SVG 1.1//EN" "http://www.w3.org/Graphics/SVG/1.1/DTD/svg11.dtd">
<!-- Creator: CorelDRAW X7 -->
<svg xmlns="http://www.w3.org/2000/svg" xml:space="preserve" width="6.2888mm" height="7.3662mm" version="1.1" style="shape-rendering:geometricPrecision; text-rendering:geometricPrecision; image-rendering:optimizeQuality; fill-rule:evenodd; clip-rule:evenodd"
viewBox="0 0 183 215"
 xmlns:xlink="http://www.w3.org/1999/xlink">
 <defs>
  <style type="text/css">
   <![CDATA[
    .fil0 {fill:#3C3C3C;fill-rule:nonzero}
   ]]>
  </style>
 </defs>
 <g id="Layer_x0020_1">
  <metadata id="CorelCorpID_0Corel-Layer"/>
  <path class="fil0" d="M92 43c13,0 26,3 37,9l1 -3 -4 -2 0 0c-4,-1 -8,-3 -12,-4l-5 -2 0 -5c1,-3 1,-5 2,-8l0 0c1,-3 2,-5 3,-8l1 -1 0 0c5,-9 13,-15 22,-17 9,-3 19,-2 28,2l1 1c8,5 14,13 16,22 2,9 1,19 -4,28l0 1c-1,2 -3,4 -5,6l0 0c-1,3 -4,4 -6,6l-4 3 -4 -3c-3,-3 -6,-5 -10,-8 -2,-1 -4,-2 -6,-4l-1 3c3,3 6,6 9,9l0 0c16,15 25,36 25,60 0,23 -9,44 -25,60l0 0c-3,3 -6,6 -10,8l5 8c2,3 0,8 -3,10 -4,2 -8,0 -10,-3l-4 -7c-11,5 -24,8 -37,8 -14,0 -26,-3 -38,-8l-4 7c-2,3 -6,5 -10,3 -3,-2 -4,-7 -2,-10l4 -8c-4,-2 -7,-5 -10,-8l0 0c-16,-16 -25,-37 -25,-60 0,-24 9,-45 25,-60l0 0c3,-3 6,-6 10,-9l-2 -3c-2,2 -4,3 -6,4 -4,3 -7,5 -10,8l-4 3 -4 -3c-2,-2 -4,-3 -6,-6l0 0c-2,-2 -4,-4 -5,-6 -5,-10 -6,-20 -4,-29 3,-9 8,-17 17,-22l0 0 1 -1c8,-4 19,-5 28,-2 8,2 16,9 21,17l1 0 0 1c1,3 3,5 3,8l0 0c1,3 2,5 2,8l0 5 -5 2c-4,1 -8,3 -12,4l-4 2 1 3c11,-6 24,-9 38,-9zm35 145l1 0 1 -1c4,-3 8,-6 12,-10l0 0c13,-12 21,-30 21,-49 0,-20 -8,-37 -21,-50l0 0c-12,-13 -30,-20 -49,-20 -20,0 -37,7 -50,20l0 0c-13,13 -21,30 -21,50 0,19 8,37 21,49l0 0c4,4 8,7 12,10l1 1 1 0c11,6 23,10 36,10 12,0 25,-4 35,-10zm-34 -75c0,1 1,2 1,3 2,1 4,2 6,4l0 0c1,1 2,2 3,4 1,0 2,0 3,0l47 12c4,1 7,5 6,9 -1,4 -5,6 -9,5l-48 -12c-1,0 -2,-1 -3,-2 -2,2 -4,3 -7,3 -4,0 -7,-1 -9,-3 -2,-2 -3,-5 -3,-8 0,-3 1,-5 2,-6 -1,-1 -2,-2 -2,-3l-14 -30c-1,-4 0,-8 4,-10 4,-1 8,0 9,4l14 30z"/>
 </g>
</svg>
