<?xml version="1.0" encoding="UTF-8"?>
<!DOCTYPE svg PUBLIC "-//W3C//DTD SVG 1.1//EN" "http://www.w3.org/Graphics/SVG/1.1/DTD/svg11.dtd">
<!-- Creator: CorelDRAW X7 -->
<svg xmlns="http://www.w3.org/2000/svg" xml:space="preserve" width="6.5522mm" height="6.1424mm" version="1.1" style="shape-rendering:geometricPrecision; text-rendering:geometricPrecision; image-rendering:optimizeQuality; fill-rule:evenodd; clip-rule:evenodd"
viewBox="0 0 2231 2091"
 xmlns:xlink="http://www.w3.org/1999/xlink">
 <defs>
  <style type="text/css">
   <![CDATA[
    .fil0 {fill:#3C3C3C}
   ]]>
  </style>
 </defs>
 <g id="Layer_x0020_1">
  <metadata id="CorelCorpID_0Corel-Layer"/>
  <path class="fil0" d="M0 2091l537 0 150 -239 323 0 -118 239 502 0 837 -2091 -308 0 -67 136 -101 0 85 -136 -307 0 -1533 2091zm755 -349l288 -462 249 0 -228 462 -309 0zm349 -560l197 -317 195 0 -156 317 -236 0zm245 -394l187 -301 147 0 -149 301 -185 0zm228 -366l144 -232 108 0 -114 232 -138 0z"/>
 </g>
</svg>
