<?xml version="1.0" standalone="no"?>
<!DOCTYPE svg PUBLIC "-//W3C//DTD SVG 1.1//EN" "http://www.w3.org/Graphics/SVG/1.1/DTD/svg11.dtd" >
<svg xmlns="http://www.w3.org/2000/svg">
<metadata>Generated by IcoMoon</metadata>
<defs>
<font id="leadtime" horiz-adv-x="1024">
<font-face units-per-em="1024" ascent="960" descent="-64" />
<missing-glyph horiz-adv-x="1024" />
<glyph unicode="&#x20;" horiz-adv-x="512" d="" />
<glyph unicode="&#xe900;" glyph-name="agenda" d="M165.161 541.591h165.161v-121.118h-165.161v121.118zM308.301 629.677h33.032c22.022 0 44.043 11.011 55.054 22.022v0c11.011 22.022 22.022 44.043 22.022 66.065v77.075h187.183v-77.075c0-22.022 0-44.043 22.022-66.065 11.011-11.011 33.032-22.022 55.054-22.022h33.032c22.022 0 33.032 11.011 44.043 22.022v0c22.022 22.022 33.032 44.043 33.032 66.065v77.075h143.14v-781.763h-847.828v781.763h143.14v-77.075c0-22.022 11.011-44.043 22.022-66.065 22.022-11.011 33.032-22.022 55.054-22.022zM330.323 882.925v0c33.032 0 66.065-22.022 66.065-66.065v-99.097c0-33.032-33.032-66.065-66.065-66.065v0c-44.043 0-77.075 33.032-77.075 66.065v99.097c0 44.043 33.032 66.065 77.075 66.065zM693.677 882.925v0c44.043 0 66.065-22.022 66.065-66.065v-99.097c0-33.032-22.022-66.065-66.065-66.065v0c-33.032 0-66.065 33.032-66.065 66.065v99.097c0 44.043 33.032 66.065 66.065 66.065zM902.882 563.613h-781.763v-528.516h781.763v528.516zM693.677 178.237h165.161v-121.118h-165.161v121.118zM429.419 178.237h165.161v-121.118h-165.161v121.118zM165.161 178.237h165.161v-121.118h-165.161v121.118zM429.419 365.419h165.161v-121.118h-165.161v121.118zM165.161 365.419h165.161v-121.118h-165.161v121.118zM693.677 365.419h165.161v-121.118h-165.161v121.118zM693.677 541.591h165.161v-121.118h-165.161v121.118zM429.419 541.591h165.161v-121.118h-165.161v121.118z" />
<glyph unicode="&#xe901;" glyph-name="caminhao" d="M872 464c0 0 0-24 0-48 0-8-8-24-16-32-16-8-40-8-64-8-8 8-16 8-16 8h-96c-24 0-32 0-40 8v0c-8 8 0 16 0 40v0c0 8 0 24 0 32v64c0 0 0 8 0 16-8 16-8 32 8 40 8 0 32 0 72 0v0c8 0 24 0 48 0v0c8 0 16 0 24-8v0c8 0 16-8 16-16v0c8-8 16-24 24-32 16-24 32-48 40-64v0zM840 160h24c24 0 72 0 88 8 40 16 40 56 40 88v64c0 48-32 64-56 96-16 8-72 120-80 128-8 16-32 48-40 64-16 16-32 32-56 48-40 24-128 16-184 16v136h-544v-632c8-16 8-16 24-16h72c0 8 0 16 0 16 0 32 16 64 32 88 24 16 56 32 88 32 64 0 112-56 112-120 0 0 0-8 0-16h248c0 8 0 16 0 16 0 32 16 64 32 88 24 16 48 32 88 32 32 0 56-16 80-32 24-24 32-56 32-88 0 0 0-8 0-16zM336 176c0-48.601-39.399-88-88-88s-88 39.399-88 88c0 48.601 39.399 88 88 88s88-39.399 88-88zM816 176c0-48.601-39.399-88-88-88s-88 39.399-88 88c0 48.601 39.399 88 88 88s88-39.399 88-88z" />
<glyph unicode="&#xe902;" glyph-name="card-background" d="M518.083 960c-245.429 0-444.84-199.411-444.84-444.84 0-130.384 56.755-246.963 145.723-328.261v0 0c9.204-7.67 18.407-15.339 26.077-23.009l273.039-227.022 271.506 227.022c9.204 7.67 16.873 15.339 26.077 23.009v0 0c88.968 81.298 145.723 197.877 145.723 328.261 0 245.429-199.411 444.84-443.306 444.84zM307.935 665.486c6.136 6.136 15.339 4.602 21.475 4.602 67.493 0 134.986 0 202.479 0 7.67 0 15.339-3.068 18.407-10.738 0-7.67 0-15.339 0-24.543 0-58.289 0-116.579 0-174.868 0-13.805 0-26.077 0-38.348 0-9.204-9.204-13.805-16.873-13.805-21.475-1.534-42.95 0-64.425 0-3.068 18.407-15.339 35.28-32.213 42.95-16.873 9.204-35.28 7.67-52.154 0s-27.611-24.543-32.213-42.95c-12.271 0-24.543 0-36.814 0-6.136 3.068-12.271 7.67-10.738 15.339 0 75.163-1.534 150.325 0 225.488 0 6.136-1.534 12.271 3.068 16.873zM630.060 435.396c10.738 3.068 24.543 1.534 33.746-6.136 10.738-7.67 16.873-21.475 15.339-35.28-3.068-19.941-23.009-35.28-42.95-32.213-16.873 1.534-30.679 16.873-32.213 33.746s9.204 33.746 26.077 39.882zM398.436 435.396c23.009 7.67 50.62-10.738 50.62-33.746 1.534-21.475-16.873-41.416-36.814-39.882-18.407-1.534-36.814 13.805-38.348 32.213-3.068 18.407 9.204 35.28 24.543 41.416zM568.703 590.323c0 7.67 6.136 13.805 13.805 13.805 26.077 0 52.154 0 78.23 0 7.67 0 12.271-6.136 16.873-10.738 13.805-15.339 24.543-30.679 36.814-47.552 6.136-9.204 13.805-19.941 16.873-30.679 0-32.213 0-62.891 0-93.57 0-6.136-4.602-10.738-9.204-13.805-7.67 0-15.339 0-23.009 0-1.534 13.805-9.204 26.077-19.941 35.28-12.271 10.738-29.145 15.339-44.484 13.805-18.407-1.534-35.28-13.805-44.484-30.679-3.068-6.136-4.602-12.271-7.67-19.941-7.67 1.534-13.805 9.204-15.339 16.873 0 47.552 0 96.638 0 145.723 0 6.136 0 13.805 1.534 21.475zM616.254 571.916v0c0-21.475 0-44.484 0-65.959 29.145 0 58.289 0 88.968 0-3.068 9.204-9.204 15.339-13.805 23.009-10.738 13.805-19.941 27.611-30.679 41.416-15.339 1.534-29.145 1.534-44.484 1.534z" />
<glyph unicode="&#xe903;" glyph-name="carga-fim" d="M128.004 608.005c-8 0-8-24.001-8-48.001 0-8 8-24.001 16-32.001 16-8 48.001-8 72.002-8 0 0 8 0 16 0h96.003c16 0 32.001 0 32.001 16v0c8 8 8 16 8 40.001v0c0 8 0 16 0 32.001v56.002c0 8 0 16 0 24.001 0 16 0 32.001-16 32.001-8 8-32.001 8-64.002 8v0c-16 0-32.001 0-56.002 0v0c-8 0-16 0-24.001-8v0c-8 0-8-8-16-16v0c-8-8-16-24.001-24.001-32.001-16-24.001-24.001-48.001-32.001-64.002v0zM792.023 440c24.001 0 56.002 0 80.002-16v8h-8c-8 8-16 8-24.001 8l-16 8v8c0 8 8 16 8 16v0c0 8 0 16 0 16l8 8c8 16 24.001 32.001 40.001 32.001 16 8 40.001 8 56.002 0v0c24.001-8 32.001-24.001 40.001-40.001 8-24.001 8-40.001 0-64.002v0c-8 0-8-8-16-16v0c0 0-8-8-8-8l-8-8-8 8c-8 0-16 8-24.001 8 0 8-8 8-16 8v0c8-8 16-16 24.001-16v0c32.001-32.001 56.002-72.002 56.002-120.004 8-56.002-8-96.003-40.001-128.004v0c-8-8-16-16-24.001-24.001l16-16c0-8 0-16-8-16-8-8-16-8-24.001 0l-8 16c-24.001-16-48.001-24.001-72.002-24.001-32.001 0-56.002 8-80.002 16l-8-16c0-8-16-8-16-8-8 0-16 16-8 24.001l8 16c-8 0-16 8-24.001 16v0c-32.001 24.001-56.002 72.002-64.002 120.004 0 48.001 16 88.003 48.001 128.004v0c8 0 8 8 16 16v8c-8-8-8-8-16-8-8-8-8-16-16-24.001h-16c-8 8-8 8-16 16v0c0 0-8 8-8 8-16 24.001-16 40.001-16 64.002 8 16 16 32.001 32.001 48.001v0 0c24.001 8 40.001 16 64.002 8 16-8 32.001-16 48.001-32.001v0 0c0-8 0-16 8-16v0c0-8 0-16 0-24.001v-8h-8c-8-8-16-8-24.001-16h-8v-8c24.001 16 48.001 24.001 80.002 24.001zM848.025 552.003c-16-8-32.001-16-40.001-32.001-8-24.001-8-40.001-8-64.002 0 0 0-8 8-8 0 8 8 8 8 16 0 16 0 32.001 8 48.001 8 8 16 16 32.001 24.001 8 8 8 8 8 16 0 0-8 0-16 0zM712.021 528.002c16 0 32.001-16 40.001-24.001 8-16 16-32.001 16-48.001 0 0 0-8 8-8 0 0 8 8 8 8 0 24.001-8 40.001-24.001 56.002-8 16-24.001 24.001-40.001 32.001-8 0-8 0-16-8 0 0 8-8 8-8zM1000.029 488.001c8-16 8-40.001 0-56.002-8-24.001-24.001-48.001-32.001-48.001-8-8-8-8-8-16 8 0 8-8 16 0 16 8 32.001 24.001 40.001 56.002 8 24.001 8 48.001 0 72.002 0 0-8 8-8 0-8 0-8 0-8-8zM560.017 464c-8-24.001 0-48.001 8-72.002 16-24.001 32.001-40.001 48.001-48.001 8 0 16 0 16 0 0 8 0 16-8 16s-24.001 16-40.001 40.001c-8 16-8 40.001-8 64.002 0 0 0 8-8 8 0 0-8 0-8-8zM728.021 375.998c-8 0-8-16-8-16l56.002-80.002c0-8 0-8 8-8-8 0-8-8-8-8 8-16 16-24.001 32.001-24.001 8 0 16 16 16 24.001s0 16-8 24.001c0 0 0 0 0 0l-8 72.002c0 8 0 8-8 8v0c-8 0-16-8-16-16v-40.001l-40.001 64.002c0 0-8 8-16 0v0zM880.026 143.991h8c8 8 16 16 24.001 24.001v0c24.001 32.001 40.001 64.002 32.001 104.003 0 40.001-16 80.002-48.001 104.003v0c-24.001 24.001-64.002 40.001-104.003 32.001-40.001 0-72.002-16-96.003-48.001v0c-24.001-24.001-40.001-64.002-40.001-104.003 8-40.001 24.001-72.002 48.001-104.003v0c8 0 24.001-8 32.001-16v0 0c24.001-16 48.001-16 80.002-16 24.001 0 48.001 8 64.002 24.001zM272.008 407.999c48.001 0 88.003-40.001 88.003-88.003s-40.001-88.003-88.003-88.003c-48.001 0-88.003 40.001-88.003 88.003s40.001 88.003 88.003 88.003zM152.004 303.996h-24.001c-24.001 0-64.002 0-88.003 8-40.001 16-40.001 56.002-40.001 88.003v64.002c0 48.001 32.001 64.002 56.002 96.003 16 8 80.002 120.004 88.003 128.004 0 16 24.001 40.001 40.001 64.002 8 16 24.001 32.001 48.001 48.001 40.001 24.001 128.004 16 184.005 16v-320.009h136.004c-8-8-8-8-8-8-8-8-8-8-8-16 0 0 0 0 0 0 0-16 0-32.001 0-48.001 0-8 0-16 8-24.001-16 32.001-16 64.002 0 88.003-8-8-8-8-8-16 0 0 0 0 0 0 0-16 0-32.001 0-48.001 0-8 0-16 8-24.001 8-32.001 24.001-64.002 64.002-80.002v0 0 0 0 0 0 0 0 0 0 0 0 0 0 0 0 0 0 0-16h-224.007c0 8 0 8 0 16 0 32.001-8 64.002-32.001 80.002-24.001 24.001-48.001 40.001-80.002 40.001s-64.002-16-88.003-40.001c-16-16-32.001-48.001-32.001-80.002 0-8 0-8 0-16z" />
<glyph unicode="&#xe904;" glyph-name="carga-inicio" d="M132.129 618.667c0 0 0-33.032 0-44.043 0-22.022 0-33.032 11.011-33.032 22.022-11.011 44.043-11.011 66.065-11.011 11.011 0 11.011 0 22.022 0h99.097c22.022 0 33.032 0 33.032 11.011v0c0 11.011 0 22.022 0 44.043v0c0 11.011 0 22.022 0 33.032v55.054c0 11.011 0 11.011 0 22.022 0 22.022 0 33.032-11.011 33.032-11.011 11.011-33.032 11.011-66.065 11.011v0c-11.011 0-33.032 0-44.043 0v0c-22.022 0-22.022-11.011-33.032-11.011v0c-11.011 0-11.011-11.011-11.011-22.022v0c-11.011 0-22.022-11.011-22.022-33.032-22.022-11.011-33.032-44.043-44.043-55.054v0zM275.269 420.473c-44.043 0-88.086-44.043-88.086-88.086 0-55.054 44.043-88.086 88.086-88.086 55.054 0 88.086 33.032 88.086 88.086 0 44.043-33.032 88.086-88.086 88.086zM165.161 310.366h-33.032c-22.022 0-66.065 0-77.075 11.011-44.043 11.011-44.043 55.054-44.043 88.086v66.065c0 44.043 33.032 55.054 55.054 88.086 11.011 11.011 77.075 121.118 88.086 132.129 0 11.011 22.022 44.043 33.032 55.054 22.022 33.032 33.032 44.043 55.054 55.054 44.043 33.032 132.129 22.022 187.183 22.022v-330.323h132.129c0-11.011 0-11.011 0-22.022v0c0-22.022 11.011-33.032 11.011-44.043v0 0c0-11.011 11.011-11.011 11.011-11.011v0c0 0 0-11.011 0-11.011 11.011 0 11.011 0 11.011 0 0-11.011 11.011-11.011 11.011-22.022v0c0-11.011-11.011-22.022-11.011-33.032-11.011-11.011-11.011-22.022-11.011-44.043h-187.183c0 11.011 0 11.011 0 22.022 0 33.032-11.011 55.054-33.032 77.075s-55.054 33.032-88.086 33.032c-33.032 0-55.054-11.011-77.075-33.032s-33.032-44.043-33.032-77.075c0-11.011 0-11.011 0-22.022zM803.785 475.527c22.022 0 55.054-11.011 88.086-22.022v0l-11.011 11.011c-11.011 0-22.022 0-33.032 11.011h-11.011v11.011c0 11.011 11.011 11.011 11.011 22.022v0c0 0 0 11.011 0 11.011v11.011h11.011c11.011 11.011 22.022 33.032 44.043 33.032 22.022 11.011 44.043 11.011 66.065 0v0c22.022-11.011 33.032-33.032 44.043-55.054 0-22.022 0-44.043-11.011-66.065v0c0-11.011-11.011-11.011-11.011-22.022v0c-11.011 0-11.011 0-11.011-11.011h-22.022c-11.011 11.011-11.011 11.011-22.022 22.022-11.011 0-11.011 0-11.011 11.011l-11.011-11.011c11.011 0 22.022-11.011 22.022-22.022v0c33.032-33.032 55.054-77.075 55.054-132.129s-22.022-110.108-55.054-143.14v0c0-11.011-11.011-11.011-22.022-22.022l11.011-11.011c0-11.011 0-22.022-11.011-22.022 0-11.011-11.011-11.011-22.022 0l-11.011 22.022c-22.022-22.022-55.054-22.022-77.075-22.022-33.032 0-66.065 0-88.086 22.022l-11.011-22.022c-11.011-11.011-22.022-11.011-22.022 0-11.011 0-11.011 11.011-11.011 22.022l11.011 11.011c-11.011 11.011-11.011 11.011-22.022 22.022v0c-33.032 33.032-55.054 88.086-55.054 143.14s22.022 99.097 55.054 132.129v0c11.011 11.011 11.011 22.022 22.022 22.022v11.011c-11.011-11.011-11.011-11.011-22.022-11.011 0-11.011-11.011-11.011-22.022-22.022h-11.011c-11.011 11.011-11.011 11.011-22.022 11.011v0c0 11.011 0 11.011-11.011 22.022-11.011 22.022-11.011 44.043 0 66.065 0 22.022 11.011 44.043 33.032 55.054v0 0c22.022 11.011 44.043 11.011 66.065 0 22.022 0 44.043-22.022 55.054-33.032v0-11.011c0 0 0-11.011 11.011-11.011v0c0-11.011 0-11.011 0-22.022v-11.011h-11.011c-11.011-11.011-22.022-11.011-33.032-11.011l-11.011-11.011h11.011c22.022 11.011 55.054 22.022 88.086 22.022zM880.86 134.194v0 0c11.011 11.011 22.022 11.011 33.032 22.022v0c33.032 33.032 44.043 77.075 44.043 121.118s-11.011 77.075-44.043 110.108v0c-33.032 33.032-66.065 44.043-110.108 44.043s-88.086-11.011-121.118-44.043v0c-33.032-33.032-44.043-66.065-44.043-110.108s11.011-88.086 44.043-121.118v0c11.011-11.011 22.022-11.011 33.032-22.022v0 0c22.022-11.011 55.054-22.022 88.086-22.022 22.022 0 55.054 11.011 77.075 22.022zM803.785 310.366c0 0 0-11.011 0-11.011 11.011 0 11.011 0 11.011-11.011v0c11.011 0 11.011 0 11.011-11.011 0 11.011 0 11.011 11.011 0l110.108-22.022c0 0 11.011-11.011 11.011-22.022s-11.011-11.011-22.022-11.011l-110.108 22.022c0 11.011-11.011 11.011-11.011 11.011 0-11.011-11.011-11.011-11.011-11.011-11.011 0-22.022 0-22.022 11.011-11.011 0-11.011 11.011-11.011 22.022 0 0 0 11.011 11.011 11.011-11.011 0-11.011 0-11.011 11.011l-33.032 66.065c0 11.011 0 22.022 11.011 22.022s22.022 0 22.022-11.011l33.032-66.065z" />
<glyph unicode="&#xe905;" glyph-name="carga-previsao" d="M144.859 595.356c-4.995-4.995-9.99-29.971-4.995-49.951 0-9.99 4.995-24.976 14.985-29.971 14.985-9.99 44.956-9.99 64.937-4.995 9.99 0 14.985 0 19.98 0h94.907c24.976 0 29.971 0 39.961 9.99v0c0 4.995 0 19.98 0 44.956v0c0 4.995 0 14.985 0 24.976v59.941c0 9.99 0 14.985 0 19.98 0 19.98 0 34.966-9.99 39.961s-29.971 4.995-69.932 4.995v0c-14.985 0-29.971-4.995-49.951-4.995v0c-9.99 0-19.98 0-24.976-4.995v0c-9.99 0-14.985-9.99-19.98-14.985v0c-4.995-9.99-9.99-19.98-19.98-34.966-14.985-19.98-29.971-44.956-34.966-59.941v0zM644.371 340.605h79.922v-54.946h-79.922v54.946zM714.302 380.566h14.985c9.99 0 19.98 4.995 24.976 9.99v0c9.99 9.99 14.985 19.98 14.985 34.966v34.966h84.917v-34.966c0-14.985 4.995-24.976 9.99-34.966 9.99-4.995 14.985-9.99 24.976-9.99h14.985c9.99 0 19.98 4.995 24.976 9.99v0c9.99 9.99 14.985 19.98 14.985 34.966v34.966h64.937v-369.639h-399.61v369.639h69.932v-34.966c0-14.985 4.995-24.976 9.99-34.966 9.99-4.995 14.985-9.99 24.976-9.99zM724.293 505.444v0c14.985 0 29.971-14.985 29.971-34.966v-44.956c0-19.98-14.985-34.966-29.971-34.966v0c-19.98 0-34.966 14.985-34.966 34.966v44.956c0 19.98 14.985 34.966 34.966 34.966zM899.122 505.444v0c14.985 0 29.971-14.985 29.971-34.966v-44.956c0-19.98-14.985-34.966-29.971-34.966v0c-19.98 0-34.966 14.985-34.966 34.966v44.956c0 19.98 14.985 34.966 34.966 34.966zM994.029 350.595h-369.639v-244.761h369.639v244.761zM894.127 170.771h79.922v-59.941h-79.922v59.941zM769.249 170.771h79.922v-59.941h-79.922v59.941zM644.371 170.771h79.922v-59.941h-79.922v59.941zM769.249 255.688h79.922v-54.946h-79.922v54.946zM644.371 255.688h79.922v-54.946h-79.922v54.946zM894.127 255.688h79.922v-54.946h-79.922v54.946zM894.127 340.605h79.922v-54.946h-79.922v54.946zM769.249 340.605h79.922v-54.946h-79.922v54.946zM289.717 395.551c-49.951 0-89.912-39.961-89.912-89.912s39.961-89.912 89.912-89.912c49.951 0 89.912 39.961 89.912 89.912s-39.961 89.912-89.912 89.912zM169.834 290.654h-24.976c-24.976 0-69.932-4.995-84.917 4.995-44.956 14.985-44.956 54.946-44.956 89.912v64.937c0 44.956 34.966 59.941 59.941 89.912 14.985 14.985 74.927 119.883 84.917 129.873 4.995 14.985 29.971 44.956 39.961 64.937 14.985 19.98 24.976 34.966 49.951 49.951 39.961 24.976 129.873 19.98 184.82 19.98v-324.683h159.844c-4.995-4.995-9.99-14.985-9.99-19.98v-169.834h-179.824c0 4.995 0 9.99 0 14.985 0 29.971-9.99 59.941-34.966 84.917-19.98 19.98-49.951 29.971-79.922 29.971-34.966 0-64.937-9.99-84.917-29.971-19.98-24.976-34.966-54.946-34.966-84.917 0-4.995 0-9.99 0-14.985z" />
<glyph unicode="&#xe906;" glyph-name="descarga-fim" d="M896.399 604.843c2.127-4.253 6.38-28.71 3.19-48.914-1.063-12.76-5.317-24.457-13.823-30.837-14.887-9.57-44.66-8.507-68.054-7.443-6.38 0-11.697 0-17.013 0h-96.764c-21.267 0-30.837 0-36.154 10.633v0c-4.253 8.507-4.253 20.204-3.19 43.597v0c0 8.507 0 18.077 0 29.774v59.547c0 7.443 0 12.76 0 18.077-1.063 22.33-1.063 32.964 12.76 39.344 10.633 4.253 29.774 4.253 66.991 3.19v0c13.823 0 30.837 0 49.977 0v0c12.76-1.063 21.267-2.127 27.647-6.38v0c7.443-3.19 11.697-9.57 17.013-17.013v-1.063c5.317-8.507 12.76-20.204 21.267-31.9 13.823-21.267 29.774-44.66 36.154-60.611v0zM751.784 403.871c49.977 0 90.384-39.344 90.384-89.321 0-48.914-40.407-89.321-90.384-89.321-48.914 0-89.321 40.407-89.321 89.321 0 49.977 40.407 89.321 89.321 89.321zM234.999 405.998c28.71 1.063 55.294-3.19 79.751-13.823l2.127 5.317-9.57 4.253c-8.507 2.127-17.013 5.317-25.52 7.443l-10.633 2.127v10.633c0 6.38 1.063 11.697 2.127 18.077v0c1.063 5.317 3.19 10.633 6.38 15.95v2.127h1.063c8.507 19.14 24.457 31.9 42.534 39.344s39.344 6.38 58.484-2.127l2.127-1.063c18.077-8.507 30.837-24.457 36.154-43.597 6.38-18.077 5.317-39.344-3.19-59.547v0c-3.19-5.317-6.38-10.633-9.57-14.887v0c-3.19-4.253-7.443-8.507-11.697-12.76l-8.507-6.38-8.507 6.38c-6.38 4.253-13.823 9.57-22.33 13.823-3.19 3.19-7.443 5.317-11.697 7.443l-3.19-6.38c7.443-4.253 14.887-10.633 21.267-15.95v0c34.027-29.774 56.357-72.307 59.547-121.221 3.19-47.85-13.823-92.511-43.597-126.538v0c-6.38-7.443-12.76-13.823-20.204-19.14l10.633-14.887c4.253-7.443 2.127-17.013-4.253-21.267-7.443-4.253-17.013-3.19-21.267 4.253l-9.57 13.823c-22.33-12.76-47.85-20.204-75.497-22.33s-54.231 3.19-78.687 12.76l-7.443-15.95c-3.19-7.443-12.76-9.57-20.204-6.38s-10.633 12.76-6.38 20.204l7.443 15.95c-7.443 5.317-14.887 10.633-22.33 17.013v0c-34.027 29.774-56.357 72.307-59.547 120.158-3.19 48.914 13.823 93.574 43.597 127.601v0c6.38 6.38 12.76 12.76 19.14 19.14l-3.19 5.317c-4.253-3.19-8.507-5.317-11.697-8.507-7.443-5.317-13.823-11.697-20.204-17.013l-7.443-7.443-9.57 5.317c-4.253 3.19-9.57 7.443-12.76 11.697v0c-4.253 3.19-8.507 8.507-11.697 12.76-11.697 19.14-14.887 40.407-11.697 59.547 4.253 18.077 14.887 36.154 31.9 47.85v0l1.063 1.063c18.077 10.633 39.344 13.823 58.484 9.57 18.077-5.317 35.090-17.013 46.787-34.027v0l1.063-1.063c4.253-5.317 6.38-10.633 8.507-15.95v0c2.127-5.317 3.19-11.697 4.253-17.013l1.063-10.633-9.57-4.253c-8.507-3.19-15.95-6.38-24.457-10.633l-8.507-5.317 3.19-4.253c22.33 12.76 47.85 21.267 75.497 23.394zM295.61 519.776c4.253 2.127 9.57 0 10.633-4.253 2.127-4.253 0-9.57-4.253-10.633-14.887-7.443-25.52-18.077-32.964-29.774-8.507-14.887-10.633-32.964-10.633-48.914 0-4.253-3.19-8.507-7.443-8.507-5.317 0-8.507 3.19-9.57 8.507 0 18.077 3.19 39.344 13.823 57.421 8.507 14.887 21.267 27.647 40.407 36.154zM156.312 495.319c-4.253 1.063-6.38 5.317-5.317 10.633 1.063 4.253 5.317 6.38 10.633 5.317 19.14-6.38 34.027-17.013 44.66-30.837 12.76-17.013 18.077-37.217 20.204-55.294 0-5.317-3.19-8.507-7.443-9.57-4.253 0-8.507 3.19-9.57 7.443-1.063 15.95-6.38 32.964-17.013 46.787-7.443 11.697-20.204 20.204-36.154 25.52zM446.604 454.912c-2.127 4.253 1.063 9.57 5.317 10.633s8.507-1.063 10.633-5.317c7.443-24.457 5.317-49.977-2.127-71.244-8.507-27.647-26.584-49.977-41.47-57.421-4.253-2.127-9.57-1.063-11.697 3.19-2.127 3.19-1.063 8.507 3.19 10.633 11.697 7.443 26.584 25.52 35.090 48.914 5.317 18.077 7.443 39.344 1.063 60.611zM4.253 430.455c0 4.253 4.253 7.443 9.57 7.443 4.253-1.063 7.443-5.317 6.38-10.633-4.253-21.267 0-42.534 8.507-59.547 10.633-22.33 27.647-39.344 41.47-43.597 4.253-2.127 6.38-7.443 4.253-11.697s-6.38-6.38-10.633-4.253c-15.95 6.38-37.217 25.52-49.977 52.104-9.57 20.204-14.887 44.66-9.57 70.181zM170.135 342.197v0c6.38 4.253 14.887 2.127 19.14-4.253l40.407-59.547-3.19 42.534c0 7.443 5.317 13.823 13.823 14.887v0c7.443 0 14.887-5.317 14.887-13.823l4.253-64.864c0-2.127 0-4.253-1.063-6.38 7.443-3.19 11.697-10.633 12.76-19.14 1.063-12.76-9.57-24.457-22.33-25.52-13.823-1.063-24.457 9.57-25.52 22.33 0 3.19 0 7.443 1.063 9.57-2.127 1.063-4.253 3.19-6.38 5.317l-52.104 78.687c-4.253 7.443-2.127 15.95 4.253 20.204zM327.51 109.325l2.127 2.127 2.127 1.063c9.57 6.38 17.013 13.823 24.457 21.267v1.063c24.457 27.647 38.28 64.864 36.154 105.271-3.19 39.344-21.267 75.497-49.977 99.954v0c-27.647 24.457-64.864 38.28-105.271 35.090-39.344-2.127-75.497-21.267-99.954-48.914v0c-24.457-27.647-38.28-64.864-35.090-105.271 2.127-40.407 21.267-75.497 48.914-99.954v0c7.443-7.443 17.013-13.823 26.584-19.14h2.127l2.127-2.127c22.33-10.633 47.85-15.95 74.434-14.887 26.584 2.127 51.040 10.633 71.244 24.457zM868.752 299.664h25.52c24.457 0 68.054-3.19 87.194 4.253 41.47 15.95 40.407 55.294 40.407 91.448v63.801c0 44.66-30.837 62.737-58.484 91.448-13.823 13.823-74.434 121.221-82.941 127.601-6.38 15.95-28.71 47.85-39.344 64.864-13.823 22.33-26.584 38.28-49.977 52.104-42.534 24.457-128.665 15.95-185.022 15.95v40.407h-549.749v-360.474c1.063 1.063 3.19 2.127 5.317 3.19 1.063 1.063 2.127 2.127 3.19 3.19v0l2.127 1.063c11.697 6.38 23.394 10.633 36.154 12.76 7.443 2.127 14.887 2.127 23.394 1.063 0 1.063 0 2.127 1.063 3.19v0 0c2.127 7.443 8.507 13.823 14.887 17.013 7.443 4.253 17.013 5.317 25.52 3.19l2.127-1.063c11.697-3.19 22.33-8.507 30.837-13.823 10.633-7.443 19.14-15.95 25.52-25.52 1.063-1.063 2.127-3.19 3.19-4.253 1.063 1.063 2.127 3.19 3.19 4.253v2.127c6.38 9.57 12.76 18.077 22.33 26.584 8.507 7.443 18.077 13.823 29.774 19.14 8.507 4.253 18.077 3.19 26.584 1.063l1.063-1.063c7.443-3.19 13.823-9.57 17.013-17.013 8.507 1.063 15.95 2.127 23.394 2.127 13.823-1.063 26.584-4.253 39.344-9.57v0h1.063l1.063-1.063 2.127-1.063c3.19-2.127 34.027-29.774 36.154-32.964 3.19 3.19 6.38 5.317 10.633 6.38 9.57 3.19 18.077 2.127 26.584-2.127v0 0c7.443-4.253 13.823-10.633 15.95-20.204v0c5.317-13.823 7.443-28.71 6.38-42.534v-1.063c0-14.887-3.19-29.774-7.443-42.534-5.317-15.95-12.76-30.837-21.267-42.534-9.57-12.76-21.267-23.394-31.9-29.774 1.063-3.19 3.19-6.38 4.253-9.57h199.909c-1.063 4.253-1.063 9.57-1.063 14.887 0 32.964 12.76 61.674 34.027 82.941s51.040 35.090 82.941 35.090c32.964 0 62.737-13.823 84.004-35.090s34.027-49.977 34.027-82.941c0-5.317 0-10.633-1.063-14.887z" />
<glyph unicode="&#xe907;" glyph-name="descarga-inicio" d="M886.682 599.050c1.962-5.885 5.885-29.425 3.923-49.042-1.962-13.732-5.885-25.502-15.693-31.387-13.732-9.808-43.157-7.847-66.697-7.847-5.885 0-11.77 0-17.655 0h-96.123c-21.579 0-31.387 0-37.272 11.77v0c-3.923 7.847-3.923 19.617-1.962 43.157v0c0 7.847 0 17.655 0 29.425v60.812c0 5.885 0 11.77 0 17.655-1.962 21.579-1.962 31.387 11.77 39.234 11.77 3.923 29.425 3.923 68.659 1.962v0c13.732 0 29.425 0 49.042 0v0c11.77 0 21.579-1.962 27.464-5.885v0c7.847-3.923 11.77-9.808 17.655-17.655v0c3.923-9.808 11.77-19.617 19.617-31.387 15.693-21.579 29.425-45.119 37.272-60.812v0zM741.517 396.996c51.004 0 90.238-39.234 90.238-88.276s-39.234-90.238-90.238-90.238c-49.042 0-88.276 41.195-88.276 90.238s39.234 88.276 88.276 88.276zM225.594 449.962c31.387 0 60.812-7.847 88.276-19.617l1.962 3.923-9.808 5.885c-9.808 3.923-19.617 7.847-27.464 9.808l-11.77 3.923v11.77c0 7.847 1.962 13.732 3.923 19.617v0c1.962 5.885 3.923 11.77 7.847 17.655l1.962 1.962v1.962c11.77 19.617 29.425 33.349 51.004 39.234 19.617 7.847 43.157 5.885 64.736-5.885l1.962-1.962c19.617-9.808 33.349-29.425 39.234-51.004 3.923-21.579 1.962-45.119-9.808-66.697v0c-3.923-5.885-7.847-9.808-11.77-15.693v0c-3.923-3.923-7.847-9.808-13.732-13.732l-9.808-5.885-9.808 7.847c-5.885 5.885-13.732 11.77-23.54 17.655-3.923 1.962-7.847 5.885-13.732 7.847l-3.923-5.885c9.808-5.885 17.655-13.732 23.54-19.617v0c35.31-37.272 58.851-86.314 58.851-141.241 0-52.966-23.54-103.969-58.851-139.28v0c-7.847-7.847-15.693-13.732-23.54-19.617l9.808-17.655c5.885-7.847 1.962-17.655-5.885-23.54-7.847-3.923-17.655-1.962-23.54 5.885l-9.808 17.655c-25.502-13.732-54.927-19.617-86.314-19.617s-60.812 5.885-86.314 19.617l-9.808-17.655c-3.923-7.847-15.693-9.808-23.54-5.885-7.847 5.885-9.808 15.693-5.885 23.54l9.808 17.655c-7.847 5.885-15.693 11.77-23.54 19.617v0c-35.31 35.31-58.851 86.314-58.851 139.28 0 54.927 23.54 103.969 58.851 141.241v0c7.847 5.885 15.693 13.732 23.54 19.617l-3.923 5.885c-5.885-1.962-9.808-5.885-13.732-7.847-9.808-5.885-17.655-11.77-23.54-17.655l-9.808-7.847-9.808 5.885c-3.923 3.923-9.808 9.808-13.732 13.732v0c-3.923 5.885-7.847 9.808-11.77 15.693-11.77 21.579-13.732 45.119-7.847 66.697 3.923 21.579 17.655 41.195 37.272 51.004v0l1.962 1.962c21.579 11.77 45.119 13.732 66.697 5.885 19.617-5.885 37.272-19.617 51.004-41.195v0-1.962c3.923-5.885 5.885-11.77 7.847-17.655v0c1.962-5.885 3.923-11.77 3.923-19.617v-11.77l-9.808-3.923c-9.808-1.962-19.617-5.885-29.425-9.808l-9.808-5.885 1.962-3.923c27.464 11.77 56.889 19.617 88.276 19.617zM307.985 110.59l3.923 3.923c11.77 5.885 21.579 13.732 29.425 21.579v0c29.425 29.425 47.080 70.621 47.080 115.739s-17.655 86.314-47.080 115.739v0c-29.425 29.425-70.621 49.042-115.739 49.042s-86.314-19.617-115.739-49.042v0c-29.425-29.425-47.080-70.621-47.080-115.739s17.655-86.314 47.080-115.739v0c9.808-7.847 17.655-15.693 29.425-21.579l3.923-3.923c23.54-13.732 52.966-21.579 82.391-21.579s58.851 7.847 82.391 21.579zM229.517 287.142c0-1.962 0-5.885 0-7.847 5.885 0 11.77-3.923 15.693-7.847v0c1.962-1.962 3.923-5.885 5.885-9.808 1.962 0 5.885 0 7.847 0l111.816-29.425c7.847-1.962 13.732-11.77 11.77-19.617-1.962-9.808-11.77-15.693-21.579-11.77l-109.854 27.464c-1.962 1.962-5.885 1.962-7.847 3.923-3.923-3.923-9.808-5.885-17.655-5.885s-13.732 1.962-19.617 7.847c-3.923 3.923-7.847 11.77-7.847 17.655s1.962 11.77 3.923 15.693c-1.962 1.962-3.923 3.923-3.923 5.885l-31.387 70.621c-3.923 7.847 0 17.655 7.847 21.579 9.808 3.923 19.617 0 23.54-7.847l31.387-70.621zM464.92 449.962v0 0zM859.218 293.027h25.502c23.54 0 68.659-1.962 86.314 3.923 43.157 15.693 41.195 56.889 41.195 92.199v64.736c0 43.157-31.387 60.812-58.851 90.238-13.732 13.732-74.544 121.625-82.391 127.51-5.885 15.693-29.425 49.042-39.234 64.736-13.732 23.54-27.464 39.234-51.004 52.966-43.157 23.54-129.471 15.693-184.398 15.693v41.195h-551.234v-282.483h1.962v1.962h3.923v1.962h3.923l1.962 1.962h3.923v1.962h5.885l1.962 1.962h7.847v1.962h7.847c15.693 1.962 29.425 0 45.119-3.923 11.77-3.923 25.502-11.77 37.272-21.579 9.808-7.847 19.617-17.655 25.502-29.425v0 0c1.962-1.962 1.962-3.923 1.962-3.923h1.962c1.962-3.923 3.923-7.847 3.923-11.77 1.962-3.923 3.923-7.847 5.885-11.77v-1.962c0-3.923 1.962-7.847 1.962-9.808v-1.962l1.962-3.923c3.923 0 9.808 0 15.693 0s11.77 0 17.655 0v5.885c0 1.962 1.962 5.885 1.962 9.808 0 0 1.962 1.962 1.962 3.923s1.962 5.885 3.923 9.808c1.962 3.923 3.923 7.847 5.885 11.77v0 1.962c0 0 1.962 0 1.962 1.962 7.847 11.77 15.693 21.579 27.464 29.425 9.808 9.808 23.54 17.655 37.272 21.579s27.464 5.885 43.157 3.923c13.732-1.962 29.425-5.885 41.195-13.732v0 0h1.962c1.962 0 1.962-1.962 3.923-1.962 11.77-7.847 21.579-15.693 29.425-27.464v0 0c7.847-11.77 13.732-23.54 17.655-37.272 3.923-15.693 3.923-29.425 3.923-45.119v0 0c-1.962-13.732-7.847-27.464-13.732-41.195l-1.962-1.962c-1.962-1.962-3.923-5.885-5.885-7.847v-1.962c-3.923-3.923-5.885-5.885-7.847-7.847v-1.962c-3.923-3.923-5.885-5.885-7.847-7.847-3.923-3.923-7.847-5.885-9.808-7.847l-1.962-1.962c5.885-9.808 11.77-19.617 15.693-31.387v0-1.962h1.962v-3.923l1.962-1.962v-3.923h1.962v-5.885l1.962-1.962v-3.923l1.962-1.962v-5.885l1.962-1.962v-7.847h1.962v-3.923h180.475c0 3.923 0 9.808 0 15.693 0 31.387 11.77 60.812 33.349 82.391s51.004 35.31 82.391 35.31c33.349 0 62.774-13.732 84.352-35.31s33.349-51.004 33.349-82.391c0-5.885 0-11.77 0-15.693z" />
<glyph unicode="&#xe908;" glyph-name="descarga-previsao" d="M877.131 588.749c4.080-4.080 8.159-28.558 4.080-48.956 0-12.239-4.080-24.478-16.319-28.558-12.239-12.239-40.797-8.159-65.275-8.159-8.159 0-12.239 0-16.319 0h-97.912c-20.398 0-32.637 0-36.717 12.239v0c-4.080 8.159-4.080 20.398-4.080 40.797v0c0 8.159 0 20.398 0 28.558v61.195c0 8.159 0 12.239 0 20.398 0 20.398 0 32.637 12.239 36.717s32.637 4.080 69.355 4.080v0c12.239 0 28.558 0 48.956 0v0c12.239 0 20.398-4.080 28.558-8.159v0c8.159-4.080 12.239-8.159 16.319-16.319v0c4.080-8.159 12.239-20.398 20.398-32.637 16.319-20.398 28.558-44.876 36.717-61.195v0zM734.343 388.845c48.956 0 89.753-40.797 89.753-89.753s-40.797-89.753-89.753-89.753c-48.956 0-89.753 40.797-89.753 89.753s40.797 89.753 89.753 89.753zM53.036 311.331h81.594v-57.116h-81.594v57.116zM122.39 352.127h16.319c8.159 0 16.319 4.080 24.478 12.239v0c8.159 8.159 12.239 16.319 12.239 32.637v36.717h81.594v-36.717c0-16.319 8.159-24.478 16.319-32.637 4.080-8.159 12.239-12.239 24.478-12.239h16.319c8.159 0 16.319 4.080 20.398 12.239v0c8.159 8.159 16.319 16.319 16.319 32.637v36.717h65.275v-371.251h-395.729v371.251h65.275v-36.717c0-16.319 4.080-24.478 12.239-32.637s16.319-12.239 24.478-12.239zM130.55 474.518v0c16.319 0 32.637-16.319 32.637-32.637v-44.876c0-20.398-16.319-32.637-32.637-32.637v0c-20.398 0-32.637 12.239-32.637 32.637v44.876c0 16.319 12.239 32.637 32.637 32.637zM305.976 474.518v0c16.319 0 28.558-16.319 28.558-32.637v-44.876c0-20.398-12.239-32.637-28.558-32.637v0c-20.398 0-32.637 12.239-32.637 32.637v44.876c0 16.319 12.239 32.637 32.637 32.637zM399.809 323.57h-367.171v-248.861h367.171v248.861zM301.896 144.064h77.514v-57.116h-77.514v57.116zM179.506 144.064h77.514v-57.116h-77.514v57.116zM53.036 144.064h81.594v-57.116h-81.594v57.116zM179.506 225.657h77.514v-57.116h-77.514v57.116zM53.036 225.657h81.594v-57.116h-81.594v57.116zM301.896 225.657h77.514v-57.116h-77.514v57.116zM301.896 311.331h77.514v-57.116h-77.514v57.116zM179.506 311.331h77.514v-57.116h-77.514v57.116zM848.574 286.853h28.558c20.398 0 65.275-4.080 85.673 4.080 40.797 12.239 40.797 53.036 40.797 89.753v65.275c0 44.876-32.637 61.195-61.195 89.753-12.239 12.239-73.434 122.39-81.594 126.47-4.080 16.319-28.558 48.956-36.717 65.275-16.319 24.478-28.558 36.717-53.036 53.036-40.797 24.478-126.47 16.319-183.586 16.319v40.797h-546.677v-379.41h32.637c4.080 8.159 8.159 16.319 16.319 24.478 8.159 12.239 24.478 16.319 40.797 16.319v0c16.319 0 28.558-4.080 40.797-16.319v0c8.159-8.159 12.239-16.319 16.319-24.478h61.195c0 8.159 8.159 16.319 16.319 24.478 8.159 12.239 24.478 16.319 40.797 16.319 12.239 0 28.558-4.080 40.797-16.319v0c4.080-8.159 12.239-16.319 12.239-24.478h57.116c12.239 0 24.478-12.239 24.478-24.478v-146.869h175.426c0 4.080 0 8.159 0 12.239 0 32.637 12.239 61.195 36.717 85.673 20.398 20.398 48.956 32.637 81.594 32.637s61.195-12.239 81.594-32.637c20.398-24.478 36.717-53.036 36.717-85.673 0-4.080 0-8.159-4.080-12.239z" />
<glyph unicode="&#xe909;" glyph-name="home" d="M1024 369.556l-512 397.426-512-397.428v162.038l512 397.426 512-397.428zM896 384v-384h-256v256h-256v-256h-256v384l384 288z" />
<glyph unicode="&#xe90a;" glyph-name="destino" d="M446.092 6.977c0-39.195-99.861-70.969-223.046-70.969s-223.046 31.774-223.046 70.969c0 39.195 99.861 70.969 223.046 70.969s223.046-31.774 223.046-70.969zM182.492 959.992h77.501v-956.828h-77.501v956.828zM182.492 544.315v-81.108h172.354v81.108h-81.108v81.108h81.108v81.108h-81.108v91.246h81.108v81.108h-81.108v81.108h-91.246c0-212.908 0-273.739 0-415.677zM851.631 878.885h91.246v81.108h-91.246v-81.108h-81.108v81.108h-81.108v-81.108h81.108v-81.108h-81.108v-91.246h81.108v-81.108h-81.108v-81.108h81.108v-81.108h81.108v81.108h91.246v81.108h-91.246v81.108h91.246v91.246h-91.246v81.108zM517.062 878.885h91.246v-81.108h-91.246v81.108zM608.308 878.885v81.108h-91.246v-81.108h-81.108v81.108h-81.108v-81.108h81.108v-81.108h-81.108v-91.246h81.108v-81.108h-81.108v-81.108h81.108v-81.108h81.108v81.108h91.246v-81.108h81.108v81.108h-81.108v81.108h81.108v81.108h-81.108v91.246h81.108v81.108h-81.108zM942.877 797.777h81.108v81.108h-81.108v-81.108zM770.523 797.777h81.108v-91.246h-81.108v91.246zM435.954 797.777h81.108v-91.246h-81.108v91.246zM517.062 706.531h91.246v-81.108h-91.246v81.108zM942.877 625.423h81.108v81.108h-81.108v-81.108zM770.523 625.423h81.108v-81.108h-81.108v81.108zM435.954 625.423h81.108v-81.108h-81.108v81.108zM942.877 463.208h81.108v81.108h-81.108v-81.108z" />
<glyph unicode="&#xe90b;" glyph-name="documento" d="M77.282 959.992v-1023.985h888.742v1023.985h-888.742zM231.846 805.429c193.205 0 386.409 0 579.614 0 0-19.32 0-38.641 0-57.961-193.205 0-386.409 0-579.614 0 0 19.32 0 38.641 0 57.961zM231.846 631.544c193.205 0 386.409 0 579.614 0 0-19.32 0-38.641 0-57.961-193.205 0-386.409 0-579.614 0 0 19.32 0 38.641 0 57.961zM231.846 148.533c135.243 0 270.487 0 405.73 0 0-19.32 0-38.641 0-57.961-135.243 0-270.487 0-405.73 0 0 19.32 0 38.641 0 57.961zM231.846 303.096c193.205 0 386.409 0 579.614 0 0-19.32 0-38.641 0-57.961-193.205 0-386.409 0-579.614 0 0 19.32 0 38.641 0 57.961zM231.846 476.981c193.205 0 386.409 0 579.614 0 0-19.32 0-38.641 0-57.961-193.205 0-386.409 0-579.614 0 0 19.32 0 38.641 0 57.961z" />
<glyph unicode="&#xe90c;" glyph-name="mercadoria" d="M101.992 800.892v-444.685l244.781-334.534v587.474zM101.992 800.892l228.462 36.717 289.657-171.347-273.339-57.116-244.781 191.745zM407.968 849.849l175.426 24.478 334.534-142.789-199.904-40.797-310.056 159.108zM917.928 731.538v-497.721l-297.817-110.151 97.912 36.717v530.359l-97.912-24.478v-542.598l-273.339-101.992v587.474z" />
<glyph unicode="&#xe90d;" glyph-name="observacao" d="M1024.015 878.736h-1024.015v-731.439h373.847l146.288-146.288 130.034 146.288h373.847v731.439zM227.559 537.398c195.050 0 390.101 0 585.151 0 0-16.254 0-32.508 0-48.763-195.050 0-390.101 0-585.151 0 0 16.254 0 32.508 0 48.763zM227.559 716.194c195.050 0 390.101 0 585.151 0 0-16.254 0-48.763 0-65.017-195.050 0-390.101 0-585.151 0 0 16.254 0 48.763 0 65.017zM227.559 374.856c130.034 0 276.322 0 406.355 0 0-16.254 0-32.508 0-48.763-130.034 0-276.322 0-406.355 0 0 16.254 0 32.508 0 48.763z" />
<glyph unicode="&#xe90e;" glyph-name="origem" d="M440.889 0c0-39.274-98.696-71.111-220.444-71.111s-220.444 31.838-220.444 71.111c0 39.274 98.696 71.111 220.444 71.111s220.444-31.838 220.444-71.111zM184.889 960h77.48v-956.558h-77.48v956.558zM263.111 455.111h-78.222v504.889h78.222l760.889-248.889z" />
<glyph unicode="&#xe90f;" glyph-name="pessoa" d="M791.116 688.844c0-149.751-121.397-271.149-271.149-271.149s-271.149 121.397-271.149 271.149c0 149.751 121.397 271.149 271.149 271.149s271.149-121.397 271.149-271.149zM907.019-63.992c0 217.982-176.512 394.495-394.495 394.495-219.046 0-395.558-176.512-395.558-394.495h790.053z" />
<glyph unicode="&#xe910;" glyph-name="relogio1" d="M512 695.172c52.966 0 102.008-11.77 145.165-33.349l3.923 7.847-17.655 9.808c-13.732 5.885-29.425 11.77-45.119 15.693l-19.617 7.847 1.962 19.617c0 9.808 3.923 19.617 5.885 31.387v0c3.923 9.808 7.847 19.617 13.732 29.425l1.962 3.923c19.617 33.349 49.042 56.889 82.391 66.697 35.31 11.77 74.544 7.847 109.854-9.808l1.962-1.962c33.349-19.617 54.927-51.004 64.736-84.352 7.847-35.31 3.923-74.544-15.693-109.854v0c-3.923-9.808-11.77-19.617-17.655-27.464v0c-7.847-7.847-15.693-15.693-23.54-21.579l-17.655-11.77-13.732 11.77c-11.77 9.808-25.502 19.617-39.234 29.425-7.847 5.885-15.693 9.808-23.54 15.693l-5.885-11.77c13.732-9.808 27.464-21.579 39.234-33.349v0c58.851-58.851 94.161-139.28 94.161-229.517s-35.31-172.628-94.161-231.479v0c-13.732-11.77-25.502-23.54-39.234-33.349l15.693-29.425c7.847-11.77 3.923-29.425-9.808-37.272s-31.387-3.923-39.234 9.808l-15.693 27.464c-43.157-19.617-92.199-33.349-143.203-33.349s-100.046 13.732-143.203 33.349l-15.693-27.464c-7.847-13.732-25.502-17.655-39.234-9.808-11.77 7.847-17.655 25.502-9.808 37.272l17.655 29.425c-15.693 9.808-27.464 21.579-39.234 33.349v0c-60.812 58.851-96.123 141.241-96.123 231.479s35.31 170.667 96.123 229.517v0c11.77 11.77 23.54 23.54 37.272 33.349l-5.885 11.77c-7.847-5.885-15.693-9.808-23.54-15.693-13.732-9.808-27.464-19.617-37.272-29.425l-15.693-11.77-15.693 11.77c-9.808 5.885-17.655 13.732-25.502 21.579v0c-5.885 7.847-11.77 17.655-17.655 27.464-19.617 35.31-23.54 74.544-13.732 109.854 7.847 33.349 29.425 64.736 62.774 84.352v0l3.923 1.962c33.349 17.655 72.582 21.579 107.893 9.808 33.349-9.808 64.736-33.349 84.352-66.697v0l1.962-3.923c3.923-9.808 9.808-19.617 11.77-29.425v0c3.923-11.77 5.885-21.579 5.885-31.387l1.962-19.617-19.617-7.847c-15.693-3.923-29.425-9.808-45.119-15.693l-17.655-9.808 5.885-7.847c43.157 21.579 92.199 33.349 143.203 33.349zM647.356 136.092l7.847 3.923c17.655 11.77 33.349 23.54 47.080 37.272h1.962c47.080 49.042 78.467 117.701 78.467 192.245s-31.387 141.241-78.467 190.284h-1.962c-47.080 49.042-115.739 78.467-190.284 78.467s-141.241-29.425-190.284-78.467v0c-49.042-49.042-80.429-115.739-80.429-190.284s31.387-143.203 80.429-192.245v0c13.732-13.732 29.425-25.502 47.080-37.272l7.847-3.923c39.234-23.54 86.314-37.272 135.356-37.272s96.123 13.732 135.356 37.272zM517.885 426.421c1.962-3.923 1.962-7.847 1.962-13.732 9.808 0 17.655-5.885 23.54-11.77v0c5.885-5.885 9.808-9.808 11.77-17.655 3.923 1.962 7.847 1.962 13.732 0l180.475-47.080c15.693-3.923 25.502-19.617 21.579-33.349-3.923-15.693-19.617-23.54-35.31-19.617l-182.437 47.080c-3.923 0-7.847 1.962-11.77 5.885-7.847-7.847-17.655-11.77-29.425-11.77s-23.54 3.923-31.387 13.732c-7.847 7.847-13.732 19.617-13.732 31.387 0 7.847 3.923 15.693 7.847 23.54-3.923 1.962-5.885 5.885-7.847 9.808l-52.966 115.739c-5.885 13.732 0 31.387 13.732 37.272 15.693 5.885 31.387 0 37.272-13.732l52.966-115.739z" />
<glyph unicode="&#xe911;" glyph-name="relogio2" d="M512 675.556c56.889 7.111 106.667 0 149.333-21.333l7.111 7.111-21.333 7.111c-14.222 7.111-28.444 14.222-49.778 14.222l-14.222 7.111v21.333c0 7.111 0 21.333 0 28.444v0c7.111 14.222 7.111 21.333 14.222 35.556v0 0c14.222 35.556 49.778 64 78.222 78.222 35.556 7.111 78.222 7.111 113.778-7.111v0c35.556-21.333 56.889-49.778 71.111-85.333 14.222-28.444 7.111-71.111-7.111-106.667v0c-7.111-14.222-14.222-21.333-21.333-28.444v0c0-7.111-14.222-21.333-21.333-28.444l-14.222-7.111-14.222 7.111c-14.222 14.222-28.444 21.333-42.667 28.444-7.111 7.111-14.222 7.111-21.333 14.222l-7.111-14.222c14.222-7.111 28.444-14.222 42.667-28.444v0c64-56.889 106.667-135.111 106.667-227.556 7.111-85.333-21.333-170.667-78.222-234.667v0c-14.222-14.222-21.333-28.444-35.556-35.556l14.222-28.444c7.111-14.222 7.111-28.444-7.111-42.667-14.222-7.111-28.444 0-35.556 7.111l-21.333 28.444c-42.667-21.333-92.444-35.556-142.222-42.667-49.778 0-99.556 7.111-142.222 28.444l-14.222-28.444c-7.111-14.222-28.444-21.333-42.667-14.222s-14.222 21.333-7.111 35.556l14.222 28.444c-14.222 14.222-28.444 21.333-42.667 35.556v0c-64 49.778-106.667 135.111-113.778 220.444-7.111 92.444 28.444 177.778 85.333 241.778v0c7.111 14.222 21.333 21.333 35.556 35.556l-7.111 7.111c-7.111 0-14.222-7.111-21.333-14.222-14.222-7.111-28.444-21.333-42.667-28.444l-14.222-14.222-14.222 7.111c-7.111 7.111-21.333 14.222-28.444 21.333v0c-7.111 7.111-14.222 14.222-21.333 28.444-21.333 28.444-28.444 71.111-21.333 106.667s28.444 71.111 64 92.444v0 0c35.556 21.333 71.111 28.444 106.667 14.222 35.556-7.111 71.111-28.444 92.444-56.889v0-7.111c7.111-7.111 14.222-21.333 14.222-28.444v0c7.111-7.111 7.111-21.333 7.111-28.444l7.111-21.333-21.333-7.111c-14.222-7.111-28.444-14.222-42.667-21.333l-21.333-7.111 7.111-14.222c42.667 28.444 92.444 42.667 142.222 42.667zM689.778 128v0h7.111c14.222 14.222 28.444 28.444 42.667 42.667v0c42.667 49.778 71.111 120.889 64 199.111 0 71.111-35.556 142.222-92.444 184.889v0c-49.778 49.778-120.889 71.111-192 64-78.222 0-142.222-35.556-192-85.333v0c-42.667-56.889-71.111-128-64-199.111 7.111-78.222 42.667-142.222 92.444-184.889v0c14.222-14.222 28.444-28.444 49.778-35.556l7.111-7.111c42.667-21.333 92.444-28.444 142.222-28.444 49.778 7.111 92.444 21.333 135.111 49.778zM391.111 561.778v0c14.222 7.111 28.444 0 35.556-7.111l78.222-113.778-7.111 78.222c0 14.222 7.111 28.444 21.333 28.444v0c21.333 0 28.444-7.111 28.444-21.333l14.222-128c0 0 0-7.111-7.111-7.111 14.222-7.111 21.333-21.333 28.444-35.556 0-28.444-21.333-49.778-42.667-49.778-28.444 0-49.778 14.222-49.778 42.667 0 7.111 0 14.222 0 14.222 0 7.111-7.111 7.111-7.111 14.222l-99.556 149.333c-7.111 7.111-7.111 28.444 7.111 35.556zM78.222 725.333c7.111 7.111 14.222 14.222 21.333 14.222s14.222-14.222 14.222-21.333c-7.111-42.667 0-78.222 14.222-113.778 21.333-35.556 49.778-71.111 78.222-78.222 7.111-7.111 7.111-14.222 7.111-21.333-7.111-7.111-14.222-14.222-21.333-7.111-28.444 7.111-71.111 49.778-92.444 99.556-21.333 35.556-28.444 78.222-21.333 128zM910.222 768c-7.111 14.222 0 21.333 7.111 21.333 7.111 7.111 14.222 0 21.333-7.111 14.222-49.778 7.111-92.444 0-135.111-21.333-49.778-56.889-92.444-85.333-106.667-7.111-7.111-14.222 0-21.333 7.111 0 7.111 0 14.222 7.111 21.333 21.333 7.111 49.778 42.667 64 92.444 14.222 28.444 14.222 71.111 7.111 106.667zM362.667 846.222c-7.111 0-7.111 14.222-7.111 21.333s14.222 14.222 21.333 7.111c35.556-7.111 64-28.444 85.333-56.889s28.444-71.111 35.556-106.667c0-7.111-7.111-14.222-14.222-14.222s-14.222 7.111-14.222 14.222c-7.111 28.444-14.222 64-35.556 85.333-14.222 21.333-35.556 42.667-71.111 49.778zM625.778 888.889c7.111 7.111 14.222 0 21.333-7.111 0-7.111 0-14.222-7.111-21.333-28.444-7.111-49.778-28.444-64-49.778-14.222-28.444-21.333-64-21.333-92.444 0-7.111-7.111-14.222-14.222-14.222s-14.222 7.111-14.222 14.222c0 35.556 7.111 71.111 21.333 106.667 21.333 28.444 42.667 49.778 78.222 64z" />
<glyph unicode="&#xe912;" glyph-name="rodovia" d="M0-34.029h244.761l69.932 109.893h149.854l-54.946-109.893h229.776l384.624 964.059h-139.863l-29.971-64.937h-44.956l34.966 64.937h-139.863l-704.312-964.059zM349.659 125.815l129.873 214.79h114.888l-104.898-214.79h-139.863zM509.502 385.561l89.912 144.859h89.912l-74.927-144.859h-104.898zM619.395 565.385l89.912 139.863h64.937l-69.932-139.863h-84.917zM724.293 735.22l69.932 104.898h44.956l-49.951-104.898h-64.937z" />
<glyph unicode="&#xe913;" glyph-name="telefone" d="M315.077 500.513c0 0 0 0 13.128 13.128 0 0 13.128 0 13.128 13.128l39.385 39.385c0 0 13.128 0 13.128 0v0c0 0 0 0 0 0 26.256 26.256 13.128 52.513 0 78.769-26.256 78.769 13.128 144.41-52.513 144.41h-131.282c-52.513-13.128-26.256-65.641-26.256-105.026s13.128-118.154 26.256-157.538c13.128-13.128 39.385-78.769 52.513-78.769 0-13.128 0-13.128 0-26.256 26.256-39.385 52.513-65.641 78.769-105.026 13.128 0 13.128-13.128 13.128-13.128l39.385-26.256c0-13.128 0-13.128 0-13.128 13.128 0 13.128 0 13.128 0 13.128-13.128 13.128-13.128 13.128-26.256 13.128 0 26.256-13.128 39.385-13.128 13.128-13.128 26.256-26.256 39.385-26.256 0-13.128 0 0 13.128 0l13.128-13.128c39.385-26.256 118.154-52.513 157.538-65.641 26.256 0 131.282-13.128 144.41 0 26.256 13.128 13.128 52.513 13.128 91.897 0 13.128 13.128 78.769 0 91.897-13.128 26.256-52.513 13.128-131.282 26.256-65.641 13.128-39.385 26.256-105.026-26.256l-13.128-13.128c0 0 0 0 0 0l-13.128-26.256c0 0 0 0-13.128 0 0-13.128 0-13.128-13.128-13.128-13.128 13.128-65.641 39.385-91.897 65.641 0 0-13.128 0-13.128 13.128-39.385 26.256-118.154 118.154-131.282 170.667z" />
<glyph unicode="&#xe914;" glyph-name="terno" d="M517.062 412.515c152.077 0 273.739 121.662 273.739 273.739s-121.662 273.739-273.739 273.739c-141.939 0-263.6-121.662-263.6-273.739s121.662-273.739 263.6-273.739zM902.323-63.992c0 162.215-91.246 304.154-233.185 364.985l-111.523-273.739-10.138 253.462 30.415 30.415h-121.662l30.415-30.415-20.277-273.739-111.523 294.015c-141.939-60.831-233.185-202.769-233.185-364.985h780.662z" />
<glyph unicode="&#xe915;" glyph-name="tipo1" d="M722.062 513.642c-78.77 0-131.284-52.514-131.284-118.156 0-78.77 52.514-131.284 131.284-131.284 65.642 0 118.156 52.514 118.156 131.284 0 65.642-52.514 118.156-118.156 118.156zM249.44 631.798h-249.44v-78.77h249.44v-183.798h301.953c0 13.128 0 13.128 0 26.257 0 91.899 78.77 157.541 170.669 157.541 39.385 0 78.77-13.128 118.156-39.385 26.257-39.385 39.385-78.77 39.385-118.156 0-13.128 0-13.128 0-26.257h105.027c26.257 0 26.257 0 39.385 13.128v249.44h-774.575z" />
<glyph unicode="&#xe916;" glyph-name="tipo2" d="M308.83 293.585c65.017 0 130.034-48.763 130.034-113.779 0-81.271-65.017-130.034-130.034-130.034s-130.034 48.763-130.034 130.034c0 65.017 65.017 113.779 130.034 113.779zM958.998 586.161h-81.271v211.305h81.271v-211.305zM845.219 586.161h-146.288v211.305h146.288v-211.305zM666.423 586.161h-130.034v211.305h130.034v-211.305zM487.626 586.161h-130.034v211.305h130.034v-211.305zM325.084 586.161h-130.034v211.305h130.034v-211.305zM146.288 586.161h-81.271v211.305h81.271v-211.305zM65.017 553.652h81.271v-130.034h-81.271v130.034zM195.050 553.652h130.034v-130.034h-130.034v130.034zM357.593 553.652h130.034v-130.034h-130.034v130.034zM536.389 553.652h130.034v-130.034h-130.034v130.034zM698.931 553.652h146.288v-130.034h-146.288v130.034zM877.727 553.652h81.271v-130.034h-81.271v130.034zM1024.015 797.465v48.763h-1024.015v-682.677c16.254-16.254 16.254-16.254 32.508-16.254h113.779c0 16.254 0 16.254 0 32.508 0 32.508 16.254 81.271 48.763 113.779 16.254 32.508 65.017 48.763 113.779 48.763 81.271 0 162.542-81.271 162.542-162.542 0-16.254 0-16.254 0-32.508h65.017v195.050h487.626v455.118z" />
</font>
</defs>
</svg>
